#!OML:ASF I:\Actors\actors\Patient Classification 2\Patient 1\Session 1\actor1.ASF
:FULLY-SPECIFIED
:DEGREES
390
root -0.749634 18.8325 5.18996 7.08935 -0.277354 -1.47906
lowerback 12.3476 0.211981 0.886594
upperback 5.55711 0.422499 2.11089
thorax -1.1169 0.198518 1.63761
lowerneck -16.4928 -3.23577 -4.93689
upperneck 28.1151 -3.89542 2.44868
head 12.1486 -1.9397 1.17314
rclavicle 3.97569e-016 -1.59028e-015
rhumerus 6.92999 22.4563 -84.3577
rradius 60.6383
rwrist 32.4104
rhand -44.5347 -47.9583
rfingers 7.12502
rthumb -17.3359 282.795
lclavicle 3.97569e-016 -1.59028e-015
lhumerus 9.56124 -23.8393 94.8118
lradius 55.9568
lwrist -17.0014
lhand -35.5784 -69.4762
lfingers 7.12502
lthumb -8.70295 -39.6757
rfemur 0 0 0
rtibia 0
rfoot 0 0
rtoes 0
lfemur -12.2322 -7.19903 -11.571
ltibia 21.4579
lfoot -21.2348 16.3553
ltoes -54.1747
391
root -0.759694 18.8349 5.19397 7.24464 -0.976916 -1.51492
lowerback 12.2503 0.463269 0.578459
upperback 5.53337 0.716822 2.12171
thorax -1.09969 0.339672 1.78455
lowerneck -16.5216 -3.17917 -4.88931
upperneck 28.0359 -3.81083 2.40033
head 12.117 -1.90305 1.15929
rclavicle 6.16232e-015 6.36111e-015
rhumerus 7.43559 23.0822 -84.4198
rradius 60.0655
rwrist 30.6835
rhand -44.6623 -49.8185
rfingers 7.12502
rthumb -17.4587 280.946
lclavicle 6.16232e-015 6.36111e-015
lhumerus 9.39398 -23.2308 95.5437
lradius 55.9139
lwrist -17.2028
lhand -35.7102 -70.1928
lfingers 7.12502
lthumb -8.83012 -40.3975
rfemur 0 0 0
rtibia 0
rfoot 0 0
rtoes 0
lfemur -12.1958 -6.96915 -11.5719
ltibia 21.481
lfoot -21.6694 16.5663
ltoes -53.7934
392
root -0.758311 18.8356 5.20069 7.30926 -1.12238 -1.49926
lowerback 12.1658 0.496998 0.525582
upperback 5.55559 0.753599 2.14131
thorax -1.03276 0.356646 1.8306
lowerneck -16.6373 -3.12549 -4.90856
upperneck 27.9978 -3.71596 2.3824
head 12.1215 -1.86424 1.16894
rclavicle 1.09332e-014 3.97569e-014
rhumerus 7.58764 23.2338 -84.8077
rradius 59.8038
rwrist 29.4484
rhand -44.7596 -50.8632
rfingers 7.12502
rthumb -17.5523 279.909
lclavicle 1.09332e-014 3.97569e-014
lhumerus 9.27067 -22.6517 96.2546
lradius 55.9007
lwrist -17.4241
lhand -35.8973 -70.8201
lfingers 7.12502
lthumb -9.01071 -41.0326
rfemur 0 0 0
rtibia 0
rfoot 0 0
rtoes 0
lfemur -12.2144 -6.9237 -11.616
ltibia 21.4909
lfoot -21.7121 16.6571
ltoes -53.7706
393
root -0.758772 18.8364 5.20791 7.37818 -1.24313 -1.52296
lowerback 12.0533 0.534149 0.499665
upperback 5.5751 0.79783 2.17611
thorax -0.953647 0.377551 1.87657
lowerneck -16.7669 -3.09514 -4.89659
upperneck 28.0014 -3.64554 2.30435
head 12.1446 -1.84066 1.14689
rclavicle -1.25234e-014 -2.74323e-014
rhumerus 7.47405 23.0558 -85.4455
rradius 59.7499
rwrist 28.5512
rhand -44.5519 -50.7453
rfingers 7.12502
rthumb -17.3525 280.009
lclavicle -1.25234e-014 -2.74323e-014
lhumerus 9.14624 -22.0899 96.9804
lradius 55.8707
lwrist -17.2095
lhand -36.0217 -71.238
lfingers 7.12502
lthumb -9.1307 -41.4557
rfemur 0 0 0
rtibia 0
rfoot 0 0
rtoes 0
lfemur -12.2385 -6.93234 -11.5988
ltibia 21.4947
lfoot -21.7794 16.7174
ltoes -53.7843
394
root -0.7602 18.8389 5.21567 7.46513 -1.34526 -1.54617
lowerback 11.9134 0.576561 0.462277
upperback 5.57682 0.84762 2.20009
thorax -0.878575 0.401259 1.91729
lowerneck -16.8629 -3.08133 -4.80221
upperneck 27.9943 -3.60127 2.14762
head 12.1541 -1.8304 1.07748
rclavicle 3.57812e-015 1.59028e-014
rhumerus 7.34806 22.8924 -86.0915
rradius 59.7273
rwrist 27.039
rhand -44.3819 -50.3502
rfingers 7.12502
rthumb -17.1888 280.39
lclavicle 3.57812e-015 1.59028e-014
lhumerus 8.96752 -21.4319 97.7671
lradius 55.843
lwrist -16.7466
lhand -36.122 -71.585
lfingers 7.12502
lthumb -9.22757 -41.8069
rfemur 0 0 0
rtibia 0
rfoot 0 0
rtoes 0
lfemur -12.2857 -6.97101 -11.5701
ltibia 21.5046
lfoot -21.8569 16.7819
ltoes -53.7814
395
root -0.761127 18.8424 5.22392 7.54952 -1.44895 -1.54108
lowerback 11.7871 0.608279 0.372895
upperback 5.57851 0.878134 2.21773
thorax -0.810982 0.414564 1.98319
lowerneck -16.9644 -3.05555 -4.75298
upperneck 27.9566 -3.54978 2.06982
head 12.1551 -1.81155 1.04648
rclavicle -1.39149e-015 1.23246e-014
rhumerus 7.26953 22.8328 -86.7092
rradius 59.7413
rwrist 24.7914
rhand -45.7414 -48.2318
rfingers 7.12502
rthumb -18.4969 282.628
lclavicle -1.39149e-015 1.23246e-014
lhumerus 8.75008 -20.6374 98.557
lradius 55.9649
lwrist -16.2354
lhand -36.24 -71.7413
lfingers 7.12502
lthumb -9.34139 -41.9683
rfemur 0 0 0
rtibia 0
rfoot 0 0
rtoes 0
lfemur -12.3247 -6.97743 -11.5808
ltibia 21.5155
lfoot -21.891 16.9059
ltoes -53.7957
396
root -0.760318 18.8452 5.23201 7.56418 -1.4699 -1.55163
lowerback 11.7597 0.600846 0.338909
upperback 5.57912 0.864518 2.22762
thorax -0.795749 0.407031 2.01452
lowerneck -17.0606 -3.01859 -4.71101
upperneck 27.9362 -3.50253 2.06227
head 12.1635 -1.78646 1.04266
rclavicle 1.78906e-015 -1.59028e-015
rhumerus 7.11718 22.6284 -87.4423
rradius 59.8889
rwrist 22.6972
rhand -45.6146 -48.3559
rfingers 7.12502
rthumb -18.375 282.492
lclavicle 1.78906e-015 -1.59028e-015
lhumerus 8.4857 -19.7519 99.3439
lradius 56.2246
lwrist -15.7576
lhand -36.2082 -71.7476
lfingers 7.12502
lthumb -9.3107 -41.9732
rfemur 0 0 0
rtibia 0
rfoot 0 0
rtoes 0
lfemur -12.312 -6.95651 -11.5793
ltibia 21.5266
lfoot -21.8933 16.9747
ltoes -53.7352
397
root -0.758464 18.8467 5.24002 7.55478 -1.43399 -1.59079
lowerback 11.7643 0.57073 0.384952
upperback 5.56397 0.830171 2.23339
thorax -0.812293 0.390742 1.99864
lowerneck -17.1535 -2.98436 -4.63847
upperneck 27.9609 -3.46351 2.03433
head 12.1883 -1.7646 1.02485
rclavicle 5.1684e-015 1.59028e-014
rhumerus 6.86831 22.2301 -88.2962
rradius 60.1473
rwrist 20.9335
rhand -43.5195 -51.5032
rfingers 7.12502
rthumb -16.3586 279.167
lclavicle 5.1684e-015 1.59028e-014
lhumerus 8.19118 -18.8186 100.154
lradius 56.4827
lwrist -15.4273
lhand -36.0876 -72.0012
lfingers 7.12502
lthumb -9.19433 -42.2217
rfemur 0 0 0
rtibia 0
rfoot 0 0
rtoes 0
lfemur -12.2845 -6.95524 -11.5443
ltibia 21.5291
lfoot -21.9211 16.963
ltoes -53.6221
